<svg width="21" height="20" viewBox="0 0 21 20" fill="none" xmlns="http://www.w3.org/2000/svg">
<g clip-path="url(#clip0_14_74)">
<path d="M12.4667 11.25C12.5333 10.7 12.5833 10.15 12.5833 9.58333C12.5833 9.01667 12.5333 8.46667 12.4667 7.91667H15.2833C15.4167 8.45 15.5 9.00833 15.5 9.58333C15.5 10.1583 15.4167 10.7167 15.2833 11.25M10.9917 15.8833C11.4917 14.9583 11.875 13.9583 12.1417 12.9167H14.6C13.8 14.2917 12.525 15.3583 10.9917 15.8833ZM10.7833 11.25H6.88333C6.8 10.7 6.75 10.15 6.75 9.58333C6.75 9.01667 6.8 8.45833 6.88333 7.91667H10.7833C10.8583 8.45833 10.9167 9.01667 10.9167 9.58333C10.9167 10.15 10.8583 10.7 10.7833 11.25ZM8.83333 16.2167C8.14167 15.2167 7.58333 14.1083 7.24167 12.9167H10.425C10.0833 14.1083 9.525 15.2167 8.83333 16.2167ZM5.5 6.25H3.06667C3.85833 4.86667 5.14167 3.8 6.66667 3.28333C6.16667 4.20833 5.79167 5.20833 5.5 6.25ZM3.06667 12.9167H5.5C5.79167 13.9583 6.16667 14.9583 6.66667 15.8833C5.14167 15.3583 3.85833 14.2917 3.06667 12.9167ZM2.38333 11.25C2.25 10.7167 2.16667 10.1583 2.16667 9.58333C2.16667 9.00833 2.25 8.45 2.38333 7.91667H5.2C5.13333 8.46667 5.08333 9.01667 5.08333 9.58333C5.08333 10.15 5.13333 10.7 5.2 11.25M8.83333 2.94167C9.525 3.94167 10.0833 5.05833 10.425 6.25H7.24167C7.58333 5.05833 8.14167 3.94167 8.83333 2.94167ZM14.6 6.25H12.1417C11.875 5.20833 11.4917 4.20833 10.9917 3.28333C12.525 3.80833 13.8 4.86667 14.6 6.25ZM8.83333 1.25C4.225 1.25 0.5 5 0.5 9.58333C0.5 11.7935 1.37797 13.9131 2.94078 15.4759C3.7146 16.2497 4.63326 16.8635 5.6443 17.2823C6.65535 17.7011 7.73898 17.9167 8.83333 17.9167C11.0435 17.9167 13.1631 17.0387 14.7259 15.4759C16.2887 13.9131 17.1667 11.7935 17.1667 9.58333C17.1667 8.48898 16.9511 7.40535 16.5323 6.3943C16.1135 5.38326 15.4997 4.4646 14.7259 3.69078C13.9521 2.91696 13.0334 2.30313 12.0224 1.88434C11.0113 1.46555 9.92768 1.25 8.83333 1.25Z" fill="#486284"/>
</g>
<defs>
<clipPath id="clip0_14_74">
<rect width="20" height="20" fill="white" transform="translate(0.5)"/>
</clipPath>
</defs>
</svg>
